<mxfile host="app.diagrams.net" modified="2024-06-07T00:29:21.072Z" agent="Mozilla/5.0 (Windows NT 10.0; Win64; x64) AppleWebKit/537.36 (KHTML, like Gecko) Chrome/125.0.0.0 Safari/537.36" etag="ybPN-zCsuhdgKs9ajGxL" version="24.4.6" type="device">
  <diagram id="C5RBs43oDa-KdzZeNtuy" name="Page-1">
    <mxGraphModel dx="1290" dy="565" grid="1" gridSize="10" guides="1" tooltips="1" connect="1" arrows="1" fold="1" page="1" pageScale="1" pageWidth="827" pageHeight="1169" math="0" shadow="0">
      <root>
        <mxCell id="WIyWlLk6GJQsqaUBKTNV-0" />
        <mxCell id="WIyWlLk6GJQsqaUBKTNV-1" parent="WIyWlLk6GJQsqaUBKTNV-0" />
        <mxCell id="sgHLpwQJMMPjkSXjCmY--8" value="Форма" style="html=1;whiteSpace=wrap;" vertex="1" parent="WIyWlLk6GJQsqaUBKTNV-1">
          <mxGeometry x="290" y="110" width="110" height="50" as="geometry" />
        </mxCell>
        <mxCell id="sgHLpwQJMMPjkSXjCmY--9" value="Таймер" style="html=1;whiteSpace=wrap;" vertex="1" parent="WIyWlLk6GJQsqaUBKTNV-1">
          <mxGeometry x="180" y="230" width="110" height="50" as="geometry" />
        </mxCell>
        <mxCell id="sgHLpwQJMMPjkSXjCmY--10" value="Обработчики событий" style="html=1;whiteSpace=wrap;" vertex="1" parent="WIyWlLk6GJQsqaUBKTNV-1">
          <mxGeometry x="414" y="230" width="110" height="50" as="geometry" />
        </mxCell>
        <mxCell id="sgHLpwQJMMPjkSXjCmY--17" value="Графика" style="ellipse;whiteSpace=wrap;html=1;" vertex="1" parent="WIyWlLk6GJQsqaUBKTNV-1">
          <mxGeometry x="30" y="320" width="110" height="50" as="geometry" />
        </mxCell>
        <mxCell id="sgHLpwQJMMPjkSXjCmY--19" value="Обновление мяча" style="ellipse;whiteSpace=wrap;html=1;" vertex="1" parent="WIyWlLk6GJQsqaUBKTNV-1">
          <mxGeometry x="180" y="320" width="110" height="50" as="geometry" />
        </mxCell>
        <mxCell id="sgHLpwQJMMPjkSXjCmY--20" value="Проверка коллизий" style="ellipse;whiteSpace=wrap;html=1;" vertex="1" parent="WIyWlLk6GJQsqaUBKTNV-1">
          <mxGeometry x="180" y="420" width="110" height="50" as="geometry" />
        </mxCell>
        <mxCell id="sgHLpwQJMMPjkSXjCmY--21" value="Запускает" style="endArrow=block;endSize=16;endFill=0;html=1;rounded=0;exitX=0;exitY=1;exitDx=0;exitDy=0;entryX=0.5;entryY=0;entryDx=0;entryDy=0;" edge="1" parent="WIyWlLk6GJQsqaUBKTNV-1" source="sgHLpwQJMMPjkSXjCmY--8" target="sgHLpwQJMMPjkSXjCmY--9">
          <mxGeometry width="160" relative="1" as="geometry">
            <mxPoint x="290" y="340" as="sourcePoint" />
            <mxPoint x="450" y="340" as="targetPoint" />
          </mxGeometry>
        </mxCell>
        <mxCell id="sgHLpwQJMMPjkSXjCmY--23" value="Проверяет" style="endArrow=block;endSize=16;endFill=0;html=1;rounded=0;exitX=0;exitY=1;exitDx=0;exitDy=0;entryX=0.5;entryY=0;entryDx=0;entryDy=0;" edge="1" parent="WIyWlLk6GJQsqaUBKTNV-1" target="sgHLpwQJMMPjkSXjCmY--10">
          <mxGeometry width="160" relative="1" as="geometry">
            <mxPoint x="400" y="160" as="sourcePoint" />
            <mxPoint x="345" y="230" as="targetPoint" />
          </mxGeometry>
        </mxCell>
        <mxCell id="sgHLpwQJMMPjkSXjCmY--24" value="Вызывает" style="endArrow=block;endSize=16;endFill=0;html=1;rounded=0;exitX=0;exitY=1;exitDx=0;exitDy=0;entryX=0.5;entryY=0;entryDx=0;entryDy=0;" edge="1" parent="WIyWlLk6GJQsqaUBKTNV-1" target="sgHLpwQJMMPjkSXjCmY--17">
          <mxGeometry width="160" relative="1" as="geometry">
            <mxPoint x="180" y="250" as="sourcePoint" />
            <mxPoint x="125" y="320" as="targetPoint" />
          </mxGeometry>
        </mxCell>
        <mxCell id="sgHLpwQJMMPjkSXjCmY--25" value="Вызывает" style="endArrow=block;endSize=16;endFill=0;html=1;rounded=0;exitX=0.5;exitY=1;exitDx=0;exitDy=0;entryX=0.5;entryY=0;entryDx=0;entryDy=0;" edge="1" parent="WIyWlLk6GJQsqaUBKTNV-1" source="sgHLpwQJMMPjkSXjCmY--9" target="sgHLpwQJMMPjkSXjCmY--19">
          <mxGeometry width="160" relative="1" as="geometry">
            <mxPoint x="190" y="300" as="sourcePoint" />
            <mxPoint x="95" y="370" as="targetPoint" />
          </mxGeometry>
        </mxCell>
        <mxCell id="sgHLpwQJMMPjkSXjCmY--26" value="Вызывает" style="endArrow=block;endSize=16;endFill=0;html=1;rounded=0;exitX=0.5;exitY=1;exitDx=0;exitDy=0;entryX=0.5;entryY=0;entryDx=0;entryDy=0;" edge="1" parent="WIyWlLk6GJQsqaUBKTNV-1" source="sgHLpwQJMMPjkSXjCmY--19" target="sgHLpwQJMMPjkSXjCmY--20">
          <mxGeometry width="160" relative="1" as="geometry">
            <mxPoint x="200" y="270" as="sourcePoint" />
            <mxPoint x="105" y="340" as="targetPoint" />
          </mxGeometry>
        </mxCell>
      </root>
    </mxGraphModel>
  </diagram>
</mxfile>
